<?xml version="1.0" encoding="UTF-8" standalone="no"?>
<!-- Created with Inkscape (http://www.inkscape.org/) -->

<svg
   width="100mm"
   height="100mm"
   viewBox="0 0 377.95277 377.95276"
   version="1.1"
   id="svg5"
   sodipodi:docname="logo(1).svg"
   inkscape:version="1.1.1 (3bf5ae0d25, 2021-09-20)"
   xmlns:inkscape="http://www.inkscape.org/namespaces/inkscape"
   xmlns:sodipodi="http://sodipodi.sourceforge.net/DTD/sodipodi-0.dtd"
   xmlns="http://www.w3.org/2000/svg"
   xmlns:svg="http://www.w3.org/2000/svg">
  <sodipodi:namedview
     id="namedview7"
     pagecolor="#ffffff"
     bordercolor="#999999"
     borderopacity="1"
     inkscape:pageshadow="0"
     inkscape:pageopacity="0"
     inkscape:pagecheckerboard="0"
     inkscape:document-units="mm"
     showgrid="false"
     inkscape:snap-bbox="true"
     inkscape:snap-bbox-midpoints="false"
     inkscape:snap-global="false"
     inkscape:object-paths="true"
     inkscape:snap-intersection-paths="true"
     inkscape:snap-bbox-edge-midpoints="true"
     inkscape:snap-object-midpoints="true"
     inkscape:bbox-nodes="false"
     inkscape:bbox-paths="false"
     inkscape:snap-nodes="true"
     inkscape:snap-smooth-nodes="true"
     inkscape:snap-midpoints="true"
     inkscape:zoom="2.8284271"
     inkscape:cx="154.85638"
     inkscape:cy="178.54446"
     inkscape:window-width="1920"
     inkscape:window-height="986"
     inkscape:window-x="-11"
     inkscape:window-y="-11"
     inkscape:window-maximized="1"
     inkscape:current-layer="layer1"
     inkscape:snap-others="true"
     inkscape:showpageshadow="0"
     inkscape:deskcolor="#d1d1d1"
     width="100mm"
     inkscape:snap-page="true"
     inkscape:object-nodes="true" />
  <defs
     id="defs2">
    <pattern
       id="EMFhbasepattern"
       patternUnits="userSpaceOnUse"
       width="6"
       height="6"
       x="0"
       y="0" />
    <pattern
       id="EMFhbasepattern-1"
       patternUnits="userSpaceOnUse"
       width="6"
       height="6"
       x="0"
       y="0" />
    <pattern
       id="EMFhbasepattern-7"
       patternUnits="userSpaceOnUse"
       width="6"
       height="6"
       x="0"
       y="0" />
    <pattern
       id="EMFhbasepattern-4"
       patternUnits="userSpaceOnUse"
       width="6"
       height="6"
       x="0"
       y="0" />
  </defs>
  <g
     inkscape:label="Layer 1"
     inkscape:groupmode="layer"
     id="layer1">
    <path
       id="path74218-6-5-5"
       style="fill:#000000;stroke:none;stroke-width:1px;stroke-linecap:butt;stroke-linejoin:miter;stroke-opacity:1"
       inkscape:transform-center-x="8.6716813"
       inkscape:transform-center-y="10.128524"
       d="m 164.57618,184.82031 c -24.86994,0 -39.96648,9.31922 -44.30969,21.37082 -2.71771,7.54116 -0.94315,16.49626 4.1925,23.98855 9.87793,14.4107 38.89509,22.10306 35.23438,44.05859 14.61123,-24.33353 73.4937,-0.95729 90.72852,-40.59961 9.12545,-20.98974 -25.15091,-40.12049 -33.69532,-45.12109 -3.40093,-1.99039 -7.62246,-1.0772 -9.49414,2.15234 -1.87167,3.22954 -0.60731,7.42373 2.71485,9.54297 3.60372,2.29885 14.20219,14.26139 7.7207,21.93945 -6.87332,8.14223 -17.06469,11.38381 -33.47266,9.69727 -37.66317,-3.87132 -35.96364,-30.68235 -18.29686,-33.63281 3.88673,-0.64911 6.50461,-4.11407 5.83984,-7.78711 -0.60246,-3.32869 -3.69271,-5.66711 -7.16211,-5.60938 z"
       sodipodi:nodetypes="csscsssssssscc" />
    <path
       id="path1-3"
       style="fill:#000000;fill-opacity:1;fill-rule:evenodd;stroke:none;stroke-width:0.601493"
       d="m 230.88706,121.04693 -0.0905,0.0223 -1.24175,0.15862 -1.26408,0.18091 h -0.0459 l -0.067,0.0223 -1.06201,0.33834 h -0.0223 l -0.0223,0.0223 -1.26407,0.51925 -0.0682,0.0234 -0.0446,0.0223 -1.03851,0.70017 -0.0236,0.0223 -0.0223,0.0223 -0.8576,0.67786 -0.0236,0.0223 -0.0223,0.0223 -0.8576,0.8811 -0.0682,0.0446 -0.0223,0.0682 -0.17505,0.29136 -0.38886,0.49811 -0.0682,0.0682 -0.0223,0.0905 -0.22674,0.51925 -0.0223,0.0223 -0.20323,0.51925 -0.36066,0.58739 -0.40648,0.67786 -0.42879,0.699 -0.0236,0.0234 -0.0223,0.0446 -0.40648,0.85877 v 0.0223 l -2.94989,6.75504 -0.008,-0.003 -0.40647,0.85761 -0.4288,0.87991 -0.0223,0.0459 v 0.0446 l -0.17504,0.58504 -0.39003,0.63439 -0.0446,0.0682 -0.0223,0.0905 -0.20324,0.70018 -0.0223,0.0893 v 0.0905 0.33012 l -0.11274,0.18914 -0.0905,0.15862 v 0.18091 0.51927 0.33833 0.36184 0.15748 0.15862 l 0.067,0.15748 0.20323,0.36184 0.0682,0.11274 0.11275,0.0682 0.16565,0.12798 -0.007,0.007 0.20324,0.18091 0.0893,0.067 0.0905,0.0459 0.4288,0.17973 0.11389,0.0682 h 0.13519 0.4288 0.63202 0.0459 l 0.067,-0.0223 1.03852,-0.18093 h 0.0234 l 0.83527,-0.18091 0.0682,-0.0223 0.0893,-0.0223 1.02441,-0.50162 1.16657,-0.31132 0.11275,-0.0446 0.0905,-0.0459 1.03852,-0.70016 -0.007,-0.01 0.82,-0.50985 0.0905,-0.0564 v 0.41823 0.0904 l 0.0223,0.0905 0.20323,0.67668 v 0.0223 0.0236 l 0.20325,0.51926 0.0446,0.11274 0.0682,0.067 0.42882,0.51926 0.40648,0.52043 0.0905,0.11274 0.15748,0.067 0.85876,0.36184 0.0682,0.0223 0.067,0.0223 0.83528,0.15862 0.0459,0.0223 h 0.067 0.83646 0.83527 0.0446 l 0.0459,-0.0223 1.06084,-0.15862 h 0.0223 l 1.0385,-0.18093 h 0.0459 l 0.0446,-0.0223 1.08434,-0.33834 -0.002,-0.007 1.24411,-0.35598 h 0.0446 l 0.0682,-0.0446 0.96684,-0.48401 0.003,0.01 0.18326,-0.0646 0.003,0.005 -0.16338,0.12798 -0.24904,0.18091 v 0.31602 0.18093 0.17973 0.33953 0.42879 l 0.36184,0.15748 0.40647,0.18091 0.13503,0.0682 h 0.13503 0.24905 l 0.38298,0.31602 0.38416,-0.31602 h 0.24905 0.24788 l 0.18091,-0.18091 0.12454,-0.11159 0.16682,-0.0693 h 0.31837 0.4288 0.17857 l 0.47577,0.13634 0.56979,0.16207 0.58269,0.31131 0.0223,0.0223 0.0446,0.0234 0.85877,0.33835 0.003,-0.01 1.23823,0.50751 1.26407,0.51925 0.83528,0.36066 0.0682,0.0234 0.067,0.0223 0.83644,0.15748 0.0446,0.0236 h 0.0682 1.03969 l 0.47227,0.13502 0.0905,0.0446 h 0.0904 0.83528 0.0682 l 0.0682,-0.0223 0.83527,-0.18091 h 0.0223 l 0.63203,-0.15748 0.0905,-0.0223 0.0682,-0.0459 0.63203,-0.36066 -0.005,-0.01 0.61441,-0.33012 0.65434,-0.33834 0.0682,-0.0223 0.0446,-0.0459 0.42879,-0.36066 0.0682,-0.0459 0.0223,-0.0446 0.40648,-0.51927 0.0682,-0.0682 0.0223,-0.0905 0.19973,-0.46052 0.18443,-0.30662 0.11275,-0.15862 v -0.17975 -0.33951 -0.36066 -0.33834 -0.2937 l -0.22557,-0.18091 -0.11045,-0.0986 -0.20559,-0.3078 -0.0459,-0.0682 -0.067,-0.0446 -0.20324,-0.18091 -0.0234,-0.0223 h -0.0223 l -0.20323,-0.15862 -0.15748,-0.13503 h -0.22555 -0.17857 l -0.0246,-0.0223 -0.18091,-0.15863 h -0.24907 -0.45111 -0.24789 l -0.18091,0.15863 -0.0248,0.0223 h -0.20088 l -0.18092,0.13503 -0.40647,0.33952 -0.13503,0.11274 -0.0682,0.15748 -0.20323,0.51927 -0.0223,0.11274 v 0.11389 0.33834 0.51925 0.11274 l 0.0223,0.11275 0.0634,0.16337 -0.10931,0.04 -0.0223,0.0223 -0.32307,0.13634 h -0.16092 l -0.5545,-0.15862 -0.0223,-0.0223 h -0.0459 l -0.70957,-0.13503 -0.5545,-0.3172 -0.0446,-0.0223 -0.0459,-0.0223 -0.82354,-0.32423 -0.55332,-0.3078 -0.63205,-0.36184 -0.0682,-0.0446 -0.0905,-0.0223 -0.63203,-0.15862 -0.001,0.007 -0.32307,-0.13634 -0.50164,-0.26784 1.11959,-0.46052 h 0.0223 l 1.46732,-0.70017 h 0.0236 v -0.0223 l 6.89601,-3.44801 0.57682,-0.16565 0.0682,0.001 0.0459,-0.0459 0.63204,-0.33834 h 0.0223 l 0.57094,-0.3266 0.39943,-0.14797 0.0234,-0.0223 h 0.0223 l 0.40648,-0.18092 0.067,-0.0223 0.0682,-0.0682 0.4288,-0.33834 0.0223,-0.0223 0.12454,-0.11045 0.32777,-0.13863 0.0905,-0.0223 0.0446,-0.0682 0.20323,-0.15747 h 0.0223 l 0.0236,-0.0223 0.20324,-0.18093 0.22555,-0.18091 v -0.2937 -0.33834 -0.29369 l -0.22555,-0.18093 -0.13633,-0.11979 -0.15748,-0.26316 -0.18092,-0.2937 h -0.36184 -0.42879 -0.40648 -0.11274 l -0.11274,0.0223 -0.36535,0.13503 h -0.46993 -0.13503 l -0.11274,0.0459 -0.32073,0.13503 h -0.26666 -0.32777 l -0.55334,-0.15748 -0.0223,-0.0234 -0.63204,-0.15748 -0.001,0.007 -0.76714,-0.3219 -0.0223,-0.0234 h -0.0223 l -1.0385,-0.33834 h -0.0223 l -0.63321,-0.18091 -0.0223,-0.0223 -0.63204,-0.15747 -0.001,0.007 -0.33716,-0.14207 -0.11274,-0.0446 h -0.13634 -0.29369 l -0.85759,-0.15862 h -0.0446 -0.0682 -0.83528 -0.0682 -0.0446 l -0.83528,0.15862 -0.11274,0.0223 -0.0682,0.0459 -0.63204,0.33834 h -0.0234 l -0.63203,0.36066 0.007,0.01 -0.61559,0.33011 -0.22557,0.11274 -0.0905,0.22555 -0.17034,0.43468 -0.34892,0.42293 -0.13502,0.18092 v 0.22556 0.51926 0.3395 0.13503 l 0.0446,0.11274 0.22673,0.51925 v 0.0459 l 0.0223,0.0223 0.20325,0.36066 0.0223,0.0236 0.20325,0.33834 0.0446,0.0682 0.0682,0.067 0.20323,0.18093 0.0905,0.0905 0.11275,0.0446 0.42879,0.15863 0.005,-0.0115 0.40179,0.16916 0.11274,0.0682 h 0.13634 0.40648 0.13503 l 0.11274,-0.0682 0.40179,-0.16916 0.005,0.0115 0.40648,-0.15863 0.20324,-0.0904 0.11275,-0.17974 0.22556,-0.36184 0.11275,-0.15748 v -0.18092 -0.33952 -0.33833 -0.2702 l 0.63204,0.17973 0.0234,0.0236 h 0.0223 l 0.82939,0.17856 0.72837,0.29487 0.0375,0.0223 -0.44406,0.18091 h -0.0223 l -1.46732,0.70018 -1.4908,0.70016 -1.46732,0.67669 -0.0234,0.0236 h -0.0223 l -1.67055,0.90225 0.002,0.005 -1.19946,0.49225 h -0.0223 -0.0223 l -1.06082,0.51925 -1.06202,0.51925 0.008,0.0147 -0.79768,0.32423 -0.0459,0.0223 -0.0446,0.0223 -0.83644,0.51925 0.001,10e-4 -0.27489,0.14682 -0.0189,-0.08 -0.40648,-1.58127 -0.20324,-0.78946 -0.72249,0.38298 -0.94688,0.48402 -0.79182,0.17152 -0.0459,0.0223 -0.067,0.0223 -0.80355,0.32543 -0.59679,0.17152 -0.58623,0.16206 -10e-4,-0.003 -0.83527,0.15748 h -0.15748 l -0.63321,-0.15748 h -0.067 -0.0905 -0.168 l -0.0575,-0.0459 -0.001,10e-4 -0.17975,-0.15863 -0.0223,-0.0234 h -0.0236 l -0.06,-0.0459 -0.0975,-0.22557 v -0.45111 -0.51926 -0.62616 l 0.19502,-0.74246 0.39237,-1.00209 h -0.001 l 0.37828,-0.77537 0.59327,-0.80473 0.0459,-0.0459 0.0223,-0.067 0.37593,-0.79417 0.54982,-0.6285 0.0223,-0.0223 0.35361,-0.42761 0.50046,-0.25846 0.003,0.008 0.40648,-0.18092 -0.003,-0.008 0.38297,-0.16092 0.005,0.0115 0.19735,-0.0727 0.18679,0.0727 0.11275,0.0446 h 0.11274 0.10684 l 0.25493,0.11274 0.0446,0.0234 h 0.0446 l 0.56859,0.16092 0.41705,0.22321 0.12093,0.20207 0.0905,0.18091 0.20323,0.0682 0.31132,0.13044 0.1175,0.11749 0.18091,0.20323 h 0.27138 0.4288 0.40648 0.42879 0.4288 0.27139 l 0.18091,-0.20323 0.17973,-0.18091 0.20325,-0.17975 0.0682,-0.0459 0.0446,-0.0682 0.20793,-0.31016 0.10799,-0.0964 0.22675,-0.17975 v -0.2937 -0.33835 -0.3395 -0.36066 -0.18091 l -0.11274,-0.15863 -0.20323,-0.33834 -0.0459,-0.0904 -0.0904,-0.067 -0.4288,-0.3395 -0.0682,-0.067 -0.0893,-0.0236 -0.32893,-0.13749 -0.34893,-0.29134 -0.0905,-0.0905 -0.13503,-0.0223 -0.63204,-0.18093 -0.0236,-0.0223 -0.63203,-0.15748 h -0.067 -0.0905 -0.63321 -0.63205 -0.63202 -0.0905 -0.067 l -0.63321,0.15748 -0.0446,0.0223 -0.0682,0.0236 -0.32189,0.14208 -0.60384,0.15043 -0.0223,0.0234 -0.63205,0.17973 h -0.0682 l -0.0446,0.0459 -0.60266,0.31134 -0.57213,0.16321 -0.11275,0.0223 -0.11274,0.0904 -0.35361,0.27843 -0.61676,0.35362 -0.60972,0.33834 -0.0459,0.0223 -0.0446,0.0459 -0.4288,0.33834 -0.63204,0.51925 h -0.0236 l -0.63204,0.54159 -0.067,0.0682 -0.0459,0.0905 -0.37357,0.60972 -0.52984,0.45112 -0.0905,0.0682 -0.0446,0.0904 -0.4288,0.70017 -0.0223,0.0223 v 0.0223 l -0.63323,1.19712 -0.63203,1.21943 -0.0223,0.0446 -0.0223,0.0446 -0.0341,0.10094 -0.10095,-0.12339 -0.3172,-0.383 -0.47343,0.20325 -1.06203,0.51925 v 0.0223 l -0.96684,0.48282 -0.003,-0.01 -0.85761,0.3395 -0.0234,0.0223 -0.50516,0.20441 0.0987,-0.22673 0.0236,-0.0223 v -0.0459 l 0.18916,-0.64966 0.39707,-0.79532 0.0234,-0.0223 0.40648,-0.88109 v -0.0223 l 0.0223,-0.0223 0.42879,-1.1971 2.91231,-6.20877 0.0234,-0.0682 0.0223,-0.0459 0.20205,-0.85291 0.34422,-0.66962 0.40178,-0.48637 0.0905,-0.0904 0.0223,-0.13503 0.1915,-0.63791 0.0115,0.005 0.20325,-0.51925 0.19853,-0.50752 0.16321,-0.25962 0.20325,-0.33834 0.0446,-0.0459 0.0223,-0.067 0.14092,-0.35949 0.28782,-0.22792 0.0905,-0.0682 0.0682,-0.11274 0.10225,-0.18091 h 0.16918 0.4288 0.40648 0.35948 l 0.54393,0.13633 10e-4,-0.007 0.33717,0.14207 0.0446,0.0223 0.0682,0.0223 0.83527,0.18091 0.0682,0.0223 h 0.067 0.63321 0.40648 0.4288 0.42879 0.13503 l 0.13634,-0.067 0.40648,-0.18091 0.0893,-0.0446 0.0682,-0.0682 0.20323,-0.18091 0.0682,-0.0446 0.0446,-0.0682 0.20559,-0.30779 0.11045,-0.0987 0.22555,-0.18093 v -0.2937 -0.33834 -0.33833 -0.18093 -0.18091 l -0.11274,-0.15748 -0.20323,-0.3395 -0.0446,-0.0893 -0.0904,-0.0682 -0.22557,-0.18091 -0.001,0.001 -0.17975,-0.15862 -0.0905,-0.0905 -0.11274,-0.0459 -0.40648,-0.15748 -0.005,0.0115 -0.40178,-0.17034 -0.11274,-0.0446 h -0.13503 -0.33952 l -1.26407,-0.15863 z m -29.57885,1.28757 -0.74482,0.11274 -1.06202,0.15748 h -0.94805 -1.06083 -0.83527 -0.83646 -1.06084 -1.26407 -1.26524 -0.5639 l -0.0682,0.54157 -0.20324,1.37803 -0.11274,0.74482 h 0.74482 0.42998 0.40648 0.31718 l -0.29486,0.24905 -0.4288,0.33834 -0.63205,0.51925 -0.59678,0.48873 -0.96215,0.48166 h -0.0223 l -0.0446,0.0236 -1.06203,0.699 0.007,0.01 -0.97743,0.51104 h -0.0223 l -0.0234,0.0223 -1.05378,0.65905 -0.77419,0.33364 -0.0904,0.0234 -0.0682,0.067 -0.0952,0.0787 0.90812,-2.69731 0.0446,-0.0905 v -0.11274 -0.18093 l 0.11389,-0.20323 0.0893,-0.15863 v -0.15748 -0.18796 l 0.0905,-0.15043 0.0234,-0.0459 0.0223,-0.0446 0.22555,-0.51926 0.0223,-0.0236 0.20323,-0.51926 v -0.0223 -0.0223 l 0.19736,-0.6802 0.007,0.002 0.22556,-0.67668 0.31603,-0.92573 -0.99271,0.0905 -1.69405,0.15747 h -1.60241 -1.46848 -0.0446 -0.0459 l -1.26407,0.18092 h -0.0446 -0.0234 l -1.26407,0.33834 0.002,0.007 -1.01855,0.17387 h -0.0446 l -0.0459,0.0223 -1.0385,0.33953 h -0.0223 l -0.0223,0.0223 -0.83528,0.33834 h -0.0459 l -0.0446,0.0446 -0.85877,0.52043 -0.0446,0.0223 -0.0223,0.0223 -0.60971,0.51925 -0.4288,0.36184 -0.63322,0.51926 -0.13503,0.11274 -0.0682,0.15748 -0.17152,0.43936 -0.34773,0.41941 -0.0905,0.0905 -0.0223,0.13503 -0.20325,0.67668 -0.0223,0.0904 v 0.0905 0.35361 l -0.18091,0.48167 -0.0904,0.22673 0.0904,0.22556 0.18091,0.4617 v 0.19267 0.18091 l 0.0905,0.15748 0.20323,0.3395 0.20323,0.33834 0.0905,0.18093 0.20323,0.067 0.32541,0.13749 0.12569,0.11159 0.0905,0.0905 0.11275,0.0446 0.42879,0.15863 0.11275,0.0446 h 0.11388 0.4288 0.20325 0.11274 l 0.11274,-0.0446 0.289,-0.11274 h 0.1175 0.24788 l 0.18092,-0.18092 0.20324,-0.18092 0.0682,-0.0682 0.0446,-0.067 0.14568,-0.24318 0.14798,-0.11864 0.24788,-0.17973 v -0.3172 -0.0293 l 0.0905,-0.15043 0.29369,-0.47461 -0.38415,-0.31955 v -0.0646 -0.31603 l -0.24788,-0.18091 -0.1234,-0.0986 -0.11388,-0.20206 -0.19149,-0.48871 -0.0459,-0.0682 -0.0223,-0.0682 -0.11274,-0.16916 v -0.23498 l 0.0975,-0.22438 0.28548,-0.25258 10e-4,0.001 0.35713,-0.28194 1.16305,-0.64379 1.3698,-0.31602 1.46732,-0.33951 -0.001,-0.007 0.63557,-0.067 -2.01124,6.01256 -0.40648,1.19712 -0.0223,0.0446 v 0.0459 l -0.20794,1.11841 -0.40177,1.02678 0.0115,0.005 -0.41821,1.0115 -0.0236,0.0446 -0.0223,0.0459 -0.20325,0.85759 -0.20676,0.78477 -0.35713,0.6156 -0.0223,0.067 -0.0236,0.0682 -0.19031,0.65788 -0.21616,0.49342 -0.0223,0.0223 -0.20323,0.51926 -0.0352,0.06 -0.20795,0.0882 -0.005,-0.0115 -0.4288,0.15748 -0.11274,0.0459 -0.11389,0.0905 -0.28194,0.26668 -0.62029,0.11635 h -0.0234 l -0.8576,0.18093 -0.4288,0.0904 -0.0682,0.45112 -0.20324,1.37803 -0.13503,0.87991 0.87991,-0.15748 0.83646,-0.15862 0.94805,-0.16092 v 0.003 h 0.63204 0.0682 l 0.067,-0.0223 0.73189,-0.15863 h 0.60032 0.40648 0.0905 l 0.0682,-0.0223 0.54275,-0.13634 h 0.36066 0.4288 0.30193 l 0.30779,0.11388 0.11274,0.0446 h 0.11275 0.63204 0.63203 0.40648 0.42881 0.40646 0.22675 0.20323 0.20323 0.47345 l 0.13503,-0.47462 0.42998,-1.37685 0.2702,-0.81295 h -0.87991 -0.42881 -0.20324 -0.20323 -0.22674 -0.87992 l -0.30193,-0.0741 0.12094,-0.31014 v -0.0223 -0.0223 l 0.20323,-0.67785 0.0223,-0.0223 0.22556,-0.8811 -0.0147,-0.003 1.28522,-4.65569 0.69547,1.06907 0.22556,0.3395 0.002,-10e-4 0.14453,0.25609 0.19148,0.48989 0.20325,0.51925 0.0446,0.11274 0.0682,0.0682 0.35832,0.4335 0.16092,0.53687 v 0.0234 l 0.22555,0.699 0.0234,0.0682 0.0446,0.0682 0.40647,0.67668 0.40296,0.78475 0.18443,0.6156 0.0223,0.0904 0.0223,0.067 0.42879,0.72248 0.01,-0.007 0.39709,0.68373 0.0236,0.0223 0.36537,0.57798 0.19852,0.50634 0.0459,0.11275 0.067,0.0682 0.4288,0.51927 0.0459,0.0446 0.0446,0.0459 0.34773,0.29252 0.578,0.81296 0.0459,0.0682 0.067,0.0446 0.85877,0.70017 0.0223,0.0236 0.0446,0.0223 0.83646,0.51927 0.0223,0.0223 h 0.0223 l 0.63203,0.33834 0.0459,0.0236 0.0446,0.0223 1.03851,0.33834 0.001,-0.003 0.81178,0.34186 0.11274,0.0682 h 0.13503 0.83646 v -0.008 l 0.94805,0.14338 0.0905,0.0234 0.0905,-0.0234 1.06084,-0.15748 h 0.0223 0.0223 l 0.83646,-0.18092 h 0.0223 l 0.0446,-0.0223 1.062,-0.33833 0.067,-0.0236 0.0459,-0.0223 0.63203,-0.36066 0.0446,-0.0459 0.0459,-0.0223 0.60971,-0.51925 0.63205,-0.51927 0.11274,-0.0905 0.0682,-0.15862 0.22556,-0.51926 0.067,-0.11274 v -0.13503 -0.51925 -0.33952 -0.17973 -0.0905 h 0.0459 l 1.06084,0.18093 0.13634,0.0223 0.11274,-0.0223 0.73191,-0.15863 h 0.82587 0.067 l 0.0459,-0.0223 0.83528,-0.15863 0.0682,-0.0223 0.067,-0.0223 0.83644,-0.36184 0.83528,-0.33833 h 0.0446 l 0.0459,-0.0446 0.8576,-0.51925 0.83527,-0.52043 0.8576,-0.51927 0.0459,-0.0223 0.0223,-0.0223 0.83527,-0.70018 0.0682,-0.0446 0.0446,-0.0682 0.63205,-0.85759 -0.002,-0.002 0.58975,-0.65319 0.0459,-0.0446 0.0223,-0.0459 0.4288,-0.67669 0.0223,-0.0223 0.0223,-0.0459 0.40648,-0.87991 0.0234,-0.0459 0.0223,-0.0682 0.22556,-0.87992 0.20323,-0.85759 v -0.0234 l 0.20325,-0.87993 0.0223,-0.0682 v -0.0682 -1.03851 -0.067 l -0.0223,-0.0459 -0.20325,-1.03851 -0.0223,-0.0905 -0.0459,-0.0905 -0.42879,-0.85761 V 130.87 l -0.40648,-0.70018 -0.067,-0.11274 -0.0905,-0.0682 -0.85877,-0.67669 -0.0446,-0.0459 -0.0223,-0.0223 -0.60971,-0.36184 -0.0682,-0.0223 -0.0682,-0.0223 -1.06083,-0.33834 -0.0446,-0.0234 h -0.0459 l -0.8576,-0.15748 h -0.0459 -0.067 -1.26524 -0.0446 -0.0446 l -1.06201,0.15748 h -0.0223 l -1.03852,0.18091 -0.11274,0.0223 -0.11274,0.0682 -0.75539,0.46874 -1.00678,0.32189 -0.11274,0.0446 -0.0905,0.0682 -0.83528,0.70018 -0.85759,0.67668 -0.0223,0.0234 -0.0223,0.0223 -0.85876,0.87991 -0.0223,0.0234 -0.60971,0.67668 -0.63204,0.70016 -0.0459,0.0446 -0.0223,0.0459 -0.4288,0.70018 -0.42879,0.67667 -0.0682,0.0905 -0.0223,0.11274 -0.20323,0.90342 0.008,0.002 -0.18915,0.62968 -0.0223,0.0223 v 0.0236 l -0.20323,0.87992 v 0.0682 0.0682 0.85759 0.8576 0.0682 0.0682 l 0.20323,0.87993 0.0223,0.0682 0.0223,0.067 0.40648,0.85877 0.0236,0.0446 0.0223,0.0234 0.42879,0.699 0.0682,0.13634 0.13503,0.067 0.1093,0.0682 h -0.15387 -0.22673 l -0.17973,0.13503 -0.42998,0.3395 -0.0223,0.0223 -0.20324,0.18091 0.001,0.001 -0.15863,0.1116 -0.27137,0.17975 v 0.3395 0.1915 l -0.14797,0.37829 -0.34891,0.42292 -0.0223,0.0459 -0.0223,0.0223 -0.0823,0.13634 -0.31366,0.0893 h -0.52984 -0.49693 l -0.69196,-0.14912 -0.50516,-0.4147 -0.0223,-0.0223 -0.0446,-0.0234 -0.78945,-0.48989 -0.3078,-0.24318 -0.14568,-0.25964 -0.0223,-0.0459 -0.0446,-0.0446 -0.40648,-0.51925 -0.41939,-0.50752 -0.37711,-0.59562 0.007,-0.003 -0.40648,-0.70018 v -0.0223 l -0.38651,-0.652 -0.1774,-0.74833 -0.0234,-0.067 -0.0446,-0.0682 -0.57329,-1.10548 -0.19384,-0.97155 -0.0236,-0.0682 -0.0223,-0.0682 -0.4288,-0.87991 v -0.0223 h -0.0223 l -0.40061,-0.80238 -0.18678,-0.64378 v -0.0223 -0.0223 l -0.20325,-0.51927 -0.0446,-0.11274 -0.0682,-0.0682 -0.27139,-0.32894 v -0.12225 -0.18092 l -0.11274,-0.15863 -0.42881,-0.699 -0.0223,-0.0234 -0.0223,-0.0446 -0.40648,-0.51925 v -0.0223 l -0.17857,-0.20559 0.02,-0.02 0.83526,-0.52043 0.83529,-0.51926 0.0459,-0.0223 0.0223,-0.0223 0.85761,-0.70018 -0.005,-0.007 0.97271,-0.67669 0.003,0.007 1.06084,-0.67785 h 0.0223 l 1.03852,-0.70016 0.0234,-0.0223 0.0223,-0.0223 1.0385,-0.84115 0.79064,-0.49105 0.83528,-0.51927 0.0446,-0.0234 0.0234,-0.0223 0.30545,-0.25728 0.50633,-0.12683 0.15862,-0.0446 0.11275,-0.11274 0.26432,-0.23613 0.50398,-0.12569 -0.001,-0.005 0.81414,-0.17504 0.85759,-0.18093 0.51926,-0.11274 v -0.51926 -1.0162 z m -83.54399,5.30536 -0.11274,0.0223 -0.36889,0.13634 h -0.26432 -0.13503 l -0.11274,0.0446 -1.24175,0.51925 h -0.0223 l -1.08432,0.51925 -0.0905,0.0459 -0.0446,0.0446 -0.83528,0.70016 -0.0236,0.0223 -0.0223,0.0234 -0.83528,0.85761 -0.0223,0.0223 -0.0223,0.0223 -0.85877,1.03852 -0.0446,0.0682 -0.0459,0.0682 -0.40648,0.85759 v 0.0223 l -0.4288,1.0385 -0.0223,0.0682 -0.0223,0.0682 -0.20324,1.03853 v 0.0446 0.0682 0.36182 0.33834 0.51926 0.70018 0.0905 l 0.0223,0.0893 0.18091,0.60386 v 0.77419 0.0904 0.067 l 0.22557,0.85878 0.20323,0.85759 0.01,-0.002 0.36537,3.14961 -2.54342,3.24242 -0.20323,0.24906 0.0682,0.29369 0.4053,1.89612 0.0541,0.24905 h -0.25609 -0.42998 -0.20325 -0.11274 l -0.11274,0.0223 -0.40648,0.15748 -0.0905,0.0459 -0.0905,0.067 -0.22555,0.18092 -0.0223,0.0223 -0.20323,0.18093 -0.0682,0.0682 -0.0446,0.0682 -0.14453,0.24082 -0.14913,0.11979 -0.22556,0.18091 v 0.31602 0.33835 0.18091 0.20323 l 0.0905,0.15748 0.13503,0.20323 v 0.11389 l 0.0682,0.15748 0.20323,0.36184 0.11275,0.17973 0.20324,0.0904 0.38651,0.16322 0.11044,0.0857 0.15748,0.15748 h 0.22557 0.19854 l 0.0282,0.0223 h 0.0223 l 0.16446,0.12798 -0.007,0.008 0.15273,0.13503 -0.15273,0.13503 -0.067,0.0682 -0.0459,0.0682 -0.14682,0.24436 -0.0552,0.0434 -0.47461,0.14092 -0.0682,0.0223 -0.0446,0.0223 -0.52629,0.28195 -0.80591,0.17034 -0.0459,0.0223 -0.0682,0.0223 -1.67055,0.67787 h -0.0223 l -1.46732,0.70018 -0.0234,0.0223 h -0.0223 l -1.26408,0.70019 -0.0223,0.0223 h -0.0236 l -1.26407,0.8576 -0.0223,0.0223 -0.0223,0.0236 -0.40647,0.33832 -0.428804,0.36184 -0.0459,0.0446 -0.0446,0.0446 -0.39237,0.47461 -0.35361,0.29369 -0.0446,0.0446 -0.0446,0.0236 -0.4523,0.51925 -0.0223,0.0446 -0.0459,0.0682 -0.12569,0.21616 0.2843,-4.00956 v -0.0234 l 0.40648,-11.44715 h 0.0223 v -0.0223 -1.89728 h -0.0148 l 0.20324,-1.87028 0.19618,-0.50045 0.0446,-0.11275 v -0.11274 -0.33832 -0.51927 -0.36183 -0.31602 l -0.20323,-0.13634 v -0.067 -0.15863 -0.316 l -0.24788,-0.17975 -0.22557,-0.18091 -0.18091,-0.13503 h -0.22557 -0.0375 l -0.36889,-0.13634 -0.22555,-0.067 -0.22675,0.067 -0.40647,0.15863 -0.0223,0.0223 -0.4288,0.18091 -0.0905,0.0223 -0.0446,0.0682 -0.20324,0.15748 -0.24905,0.18091 v 0.27138 l -0.13503,0.20324 v 0.0223 l -0.0223,0.0223 -0.38768,0.66845 -0.38064,0.46051 -0.37123,0.47344 -0.57682,0.47461 -0.363,0.28784 -0.33718,0.14093 -0.0904,0.0236 -0.067,0.067 -0.40647,0.33951 -0.40414,0.33952 -0.54509,0.29252 -0.60737,0.32542 -0.81412,0.35127 -0.0905,0.0234 -0.0682,0.067 -0.60852,0.50046 -0.54277,0.29018 -0.63203,0.33834 h -0.0236 -0.0223 l -0.60971,0.36184 -0.0223,0.0223 -0.0446,0.0446 -0.42998,0.33952 -0.0446,0.0223 -0.0223,0.0446 -0.58975,0.65436 -0.60736,0.49812 -0.15748,0.11274 -0.0459,0.20323 -0.20323,0.67668 -0.0223,0.0234 v 0.0223 l -0.20323,0.87992 -0.0223,0.0682 v 0.0682 0.67666 0.0905 l 0.0446,0.0905 0.20323,0.70017 0.0223,0.067 0.0234,0.0682 0.40648,0.70017 0.067,0.11274 0.0905,0.0682 0.63204,0.51927 0.4288,0.33834 0.42998,0.33832 0.067,0.0682 0.0682,0.0223 0.40648,0.18091 0.0446,0.0223 h 0.0459 l 0.63203,0.18091 0.0905,0.0446 h 0.0904 0.4288 0.13503 l 0.13634,-0.067 0.25375,-0.11274 h 0.31016 0.22555 l 0.18093,-0.15863 0.42879,-0.33834 0.0223,-0.0223 0.20323,-0.18091 0.20323,-0.18093 0.22675,-0.18091 v -0.2937 -0.15748 -0.36182 -0.15748 -0.36183 -0.15747 -0.29369 l -0.22675,-0.18093 -0.20323,-0.18091 -0.0223,-0.0223 -0.42879,-0.33834 -0.18092,-0.13503 h -0.22556 -0.168 l -0.0575,-0.0459 -0.18093,-0.13503 h -0.22556 -0.20323 -0.4288 -0.38416 v -0.0611 l 0.20325,-0.0752 0.11274,-0.0446 0.0904,-0.0905 0.15273,-0.13503 0.44173,-0.23731 0.78239,-0.16916 0.0905,-0.0223 0.0905,-0.0459 1.23705,-0.68491 0.005,0.008 1.06201,-0.51925 v -0.0234 l 1.03852,-0.51925 0.067,-0.0223 0.0459,-0.0446 0.83528,-0.67784 0.28664,-0.24202 -0.0611,0.73895 v 0.0223 0.0223 2.21329 l -0.20323,6.59293 v 0.0223 0.92573 l -0.20325,1.03853 v 0.0459 0.0682 0.87993 0.85877 0.69899 0.67786 0.70017 0.51927 0.38532 l -0.20323,0.63086 -0.0223,0.11275 v 0.0904 0.51925 0.51926 0.51925 0.33834 0.33952 0.36066 0.33834 0.33951 0.31602 l 0.22557,0.17973 v 0.0236 0.4288 l 0.36182,0.15748 0.40648,0.18093 0.13503,0.0682 h 0.13503 0.20324 0.4288 0.13634 l 0.11274,-0.0682 0.4288,-0.18093 0.40648,-0.15748 v -0.31368 l 0.18093,-0.16092 0.067,-0.0446 0.0459,-0.0682 0.22555,-0.33833 v -0.0223 l 0.15748,-0.26316 0.13634,-0.12094 0.0682,-0.0459 0.0446,-0.067 0.22555,-0.33952 -0.007,-0.003 0.28783,-0.36889 0.55333,-0.30427 0.11389,-0.0682 0.067,-0.0905 0.364184,-0.44054 0.74248,-0.46169 0.0446,-0.0234 0.0236,-0.0223 0.63203,-0.51927 1.19945,-0.98564 1.44265,-0.8435 0.0223,-0.0223 h 0.0223 l 1.26407,-0.85759 -0.001,-0.002 1.19828,-0.6755 0.0223,-0.0223 h 0.0223 l 1.062,-0.70018 -0.007,-0.01 0.82,-0.50985 0.83527,-0.51927 0.0223,-0.0223 0.0446,-0.0234 0.42998,-0.33834 0.83526,-0.70018 0.0446,-0.0446 0.0459,-0.0459 0.4288,-0.51927 0.0446,-0.067 0.0459,-0.0682 0.40648,-0.85759 0.0223,-0.0236 v -0.0446 l 0.22555,-0.70019 0.0459,-0.11274 v -0.0904 -0.8576 -0.0905 l -0.0236,-0.0682 -0.20325,-0.793 v -0.26785 -0.15862 l -0.0905,-0.15748 -0.20324,-0.36184 -0.11274,-0.20323 -0.22555,-0.0893 -0.21263,-0.0834 -0.10341,-0.16564 -0.0446,-0.0904 -0.0905,-0.067 -0.40648,-0.3395 -0.22555,-0.18091 -0.0905,-0.067 -0.001,-0.001 0.15862,-0.17975 1.82916,-2.05353 v 0.0211 l 0.22555,1.03852 0.20325,0.88109 v 0.0223 l 0.0236,0.0223 0.20207,0.67784 v 0.0223 l 0.20323,0.62734 v 0.56976 0.11274 l 0.0234,0.11274 0.20325,0.51926 0.17975,0.45934 v 0.1727 0.20323 l 0.0905,0.15863 0.22673,0.33834 0.0446,0.0682 0.0682,0.0446 0.20325,0.18091 0.067,0.0682 0.0905,0.0446 0.40648,0.18092 0.001,-0.003 0.13388,0.0939 0.0459,0.0446 0.0682,0.0223 0.4288,0.18093 0.11274,0.0682 h 0.13503 0.22557 0.40648 0.42879 0.15863 l 0.13503,-0.0904 0.63203,-0.33834 0.0682,-0.0236 0.0459,-0.0446 0.63203,-0.51926 0.83529,-0.70018 0.0446,-0.0223 0.0234,-0.0459 0.63204,-0.699 0.0223,-0.0236 0.0223,-0.0223 0.63203,-0.8576 0.63203,-0.85877 0.0459,-0.067 0.0446,-0.0905 0.40648,-1.03851 -0.0115,-0.005 0.40884,-0.98799 0.0552,0.13388 0.0446,0.0905 0.0682,0.0904 0.63204,0.70019 0.63203,0.70016 0.0905,0.11274 0.13503,0.0446 0.83528,0.3395 h 10e-4 l 0.0223,0.0223 0.40648,0.15748 0.003,-0.01 0.40295,0.16917 0.067,0.0446 h 0.0682 l 1.06085,0.18091 0.0682,0.0223 h 0.0446 0.83644 0.0446 l 0.0682,-0.0223 1.06082,-0.18091 h 0.0223 l 0.85877,-0.17975 0.0446,-0.0234 0.0682,-0.0223 0.83527,-0.33834 0.0905,-0.0223 0.067,-0.0682 0.56977,-0.46755 0.74012,-0.29959 0.13503,-0.0459 0.0905,-0.11274 0.63204,-0.70018 0.0459,-0.0446 0.0223,-0.0459 0.37946,-0.63204 0.59209,-0.65435 0.0223,-0.0223 0.0223,-0.0234 0.63205,-0.85759 0.0223,-0.0446 0.0459,-0.0682 0.42879,-0.88109 0.0223,-0.0446 0.0223,-0.0682 0.20325,-0.8576 0.20323,-0.85877 0.22673,-0.90223 0.0223,-0.0682 v -0.0905 -0.85759 -0.85878 -0.0893 l -0.0223,-0.0682 -0.22673,-0.88109 -0.20323,-0.85759 -0.0223,-0.0459 v -0.0223 l -0.40648,-1.03851 -0.0446,-0.0905 -0.0459,-0.067 -0.63204,-0.85877 -0.0223,-0.0223 -0.0223,-0.0223 -0.63202,-0.70019 -0.0682,-0.0682 -0.0682,-0.0446 -0.8576,-0.51925 -0.0459,-0.0223 -0.0223,-0.0236 -0.40647,-0.17975 h -0.0223 l -0.0223,-0.0234 -0.42879,-0.15748 h -0.0236 -0.0223 l -0.59091,-0.16916 0.005,-0.0115 -0.40647,-0.15748 -0.11389,-0.0234 h -0.11274 -0.4288 -0.4065 -0.0904 -0.067 l -0.63204,0.15863 h -0.29369 -0.0904 l -0.11274,0.0223 -1.06201,0.33833 h -0.0223 l -0.0223,0.0236 -0.83528,0.36066 h -0.0223 l -0.0234,0.0223 -1.03852,0.51927 -0.0905,0.0459 -0.0904,0.0905 -0.58975,0.63086 -0.80942,0.67785 -0.0682,0.0459 -0.0446,0.0682 -0.63203,0.8576 -0.0236,0.0446 -0.0446,0.0682 -0.4288,0.88109 v 0.0223 l -0.0234,0.0223 -0.41823,1.16655 -0.37123,0.64027 -0.0459,0.067 -0.0223,0.0905 -0.20324,0.85877 v 0.0893 0.0682 0.72249 0.85877 0.699 0.85878 0.067 0.0682 l 0.20324,0.88109 v 0.0223 l 0.0223,0.0223 0.20323,0.67785 v 0.0446 l 0.0234,0.0223 0.0148,0.0329 -1.23352,-0.50634 -0.51926,-0.22673 -0.27138,0.47461 -0.19384,0.32191 -0.01,-0.007 -0.20559,0.3078 -0.31366,0.27961 -0.11274,0.0904 -0.0682,0.15748 -0.16321,0.41825 -0.53689,0.57564 -0.067,0.0682 -0.0459,0.11274 -0.16564,0.38063 -0.20088,0.17857 -0.94337,-4.23981 -0.007,10e-4 -0.37829,-2.45296 3.81807,-4.63807 0.20323,-0.22556 -0.0682,-0.31602 -0.40647,-1.9196 -0.27021,-1.26526 -0.85877,0.97155 -3.0944,3.59956 -0.0211,-0.14453 v -0.0234 l -0.20323,-1.03852 v -0.0223 -0.0223 l -0.18093,-0.7648 v -0.63556 -0.0905 l -0.0446,-0.0905 -0.15863,-0.52748 v -0.66845 -0.51926 -0.20323 l -0.11274,-0.15862 -0.11274,-0.16916 v -0.16918 -0.51926 -0.51925 -0.0388 l 0.0682,-0.0516 0.0446,-0.0904 0.0823,-0.13634 0.39239,-0.1116 0.11274,-0.0236 0.0905,-0.0905 h 0.47345 0.13634 l 0.11274,-0.067 0.41117,-0.17387 0.40765,-0.11979 h 0.60385 0.0893 l 0.0682,-0.0223 0.63202,-0.15863 0.0459,-0.0223 0.0446,-0.0223 0.4288,-0.18093 0.0905,-0.0446 0.0905,-0.0682 0.17975,-0.15977 0.001,0.001 0.4288,-0.33834 0.0223,-0.0223 0.20323,-0.18092 0.0682,-0.0682 0.0446,-0.067 0.20323,-0.33952 0.11274,-0.15748 v -0.18091 -0.33834 -0.18091 -0.18093 l -0.11274,-0.15748 -0.0905,-0.15158 v -0.0293 -0.29371 l -0.24788,-0.20323 -0.40646,-0.33834 -0.22557,-0.18093 -0.18091,-0.13502 h -0.22557 -0.0375 l -0.36889,-0.13634 -0.11274,-0.0223 h -0.11274 -0.40648 z m 26.26008,0.13634 -0.99388,0.42879 -3.56784,1.53544 -0.36066,0.15748 -0.0234,0.38415 -0.19266,2.97575 -2.44826,0.43348 -0.51927,0.0905 v 0.54157 1.89728 0.76714 l 0.74482,-0.13503 2.13578,-0.37827 -0.37477,5.61665 v 0.0223 0.0234 0.8576 0.85759 0.85878 0.11274 l 0.0223,0.11274 0.18092,0.46169 v 0.35127 0.13503 l 0.0446,0.11274 0.22673,0.51925 0.067,0.15863 0.11274,0.0905 0.22673,0.17975 0.4288,0.33951 0.001,-0.001 0.17974,0.15863 0.0893,0.0682 0.0905,0.0446 0.42998,0.18091 0.11274,0.0682 h 0.13503 0.40647 0.4288 0.13503 l 0.13634,-0.0682 0.40648,-0.18091 -0.001,-0.002 0.54275,-0.15502 h 0.0682 l 0.0446,-0.0459 0.63204,-0.33834 0.63204,-0.33832 0.18092,-0.0905 0.0904,-0.15862 0.14683,-0.25962 0.29723,-0.23497 0.54979,-0.29487 0.067,-0.0236 0.0459,-0.0446 0.65435,-0.51925 0.63204,-0.51926 0.0459,-0.0223 0.0223,-0.0459 0.58505,-0.64848 0.8153,-0.66141 0.0223,-0.0223 0.0446,-0.0223 0.83527,-0.88109 0.52044,-0.56391 -0.63321,-0.4288 -1.26408,-0.85877 -0.40647,-0.27021 -0.38416,0.33835 -2.87237,2.52227 -0.67197,0.27255 v -0.0177 h -0.22556 v -0.0682 l -0.11389,-0.15747 -0.0893,-0.14913 v -0.18913 -0.36183 -0.33834 -0.41118 l 0.15748,-0.40177 0.0459,-0.11275 v -0.11274 -0.51927 h -0.0223 l 0.20323,-4.83308 3.47621,-0.45112 0.56507,-0.0682 v -0.34068 l 0.94805,0.92807 0.36066,0.36184 0.42998,-0.27138 0.83527,-0.51926 0.0446,-0.0223 0.0223,-0.0223 0.54159,-0.44525 0.49811,-0.14207 h 0.0223 l 0.0446,-0.0223 0.2843,-0.11389 h 0.0329 l 0.16916,0.0716 0.12339,0.1093 0.0905,0.0905 0.11274,0.0459 0.31955,0.1234 0.28429,0.23964 0.39003,0.47227 0.0446,0.0446 0.0459,0.0459 0.25845,0.21498 0.17034,0.52982 0.0223,0.11274 0.0905,0.0905 0.40646,0.51925 0.4147,0.50282 0.32307,0.53805 0.21029,0.652 v 0.0236 l 0.0223,0.0446 0.63321,1.37803 0.002,-0.001 0.38062,1.30989 v 0.0223 l 0.41706,1.18301 0.19266,0.98564 v 0.58622 0.75892 l -0.17975,0.61911 -0.0234,0.0223 -0.19032,0.80473 -0.32189,0.52395 -0.59327,0.63556 -0.63321,0.70018 -0.59093,0.65436 -0.35713,0.29723 -0.51103,0.27371 -0.38532,0.16206 -0.51575,0.14798 h -0.10094 -0.4288 -0.40648 -0.34891 l -0.5545,-0.15863 -0.0893,-0.0223 h -0.0905 -0.42879 -0.40648 -0.13634 l -0.11274,0.0459 -0.32191,0.13503 h -0.26548 -0.11275 l -0.11274,0.0223 -0.42879,0.15863 -0.0223,0.0223 -0.4288,0.18091 -0.0904,0.0446 -0.0905,0.0682 -0.20325,0.18091 -0.0682,0.067 -0.0446,0.0682 -0.15862,0.26433 -0.13503,0.11979 -0.20325,0.17975 v 0.2937 0.33833 0.33952 0.18093 0.17973 l 0.0905,0.15862 0.20324,0.33835 0.0446,0.0682 0.0682,0.067 0.20324,0.18091 0.0223,0.0223 0.4288,0.3395 0.0682,0.067 0.0682,0.0234 0.40648,0.17975 0.13503,0.0682 h 0.13502 0.63205 0.63321 0.63202 0.067 l 0.0682,-0.0223 0.83527,-0.18091 0.0459,-0.0223 h 0.0446 l 0.88109,-0.33834 0.0223,-0.0234 0.78945,-0.31955 0.001,0.003 1.03852,-0.36066 0.067,-0.0223 0.0682,-0.0459 0.85759,-0.51925 0.0234,-0.0223 0.0446,-0.0223 0.83527,-0.67786 0.0223,-0.0223 0.0459,-0.0223 0.83528,-0.8811 -0.0115,-0.01 0.8247,-0.84702 0.0223,-0.0234 0.0223,-0.0223 0.4288,-0.51926 0.40648,-0.51925 0.0234,-0.0446 0.0223,-0.0234 0.4288,-0.69899 0.42879,-0.67786 0.0223,-0.0223 0.38298,-0.66023 0.63321,-0.83057 0.0234,-0.0446 0.0446,-0.0682 0.4288,-0.87993 0.40648,-0.85878 0.85877,-1.8961 0.0223,-0.0236 v -0.0446 l 0.60971,-1.761 v -0.0223 l 0.0223,-0.0234 0.4288,-1.71519 -0.0148,-0.003 0.42175,-1.53192 0.0223,-0.0459 v -0.0446 l 0.20323,-1.55776 0.20325,-1.40036 0.0223,-0.0446 v -0.0459 -1.19712 -0.067 l -0.0223,-0.0459 -0.18091,-0.92573 v -0.51926 -0.15747 l -0.0893,-0.15863 -0.20323,-0.36066 -0.0236,-0.0234 v -0.0223 l -0.22555,-0.33834 -0.0446,-0.0682 -0.0682,-0.0446 -0.20323,-0.18092 -0.0905,-0.0904 -0.11274,-0.0446 -0.34303,-0.12684 -0.0857,-0.0764 -0.0905,-0.0905 -0.11274,-0.0459 -0.40648,-0.15748 -0.22557,-0.0682 -0.22555,0.0682 -0.36888,0.13503 h -0.26434 -0.24787 l -0.18093,0.15862 -0.0246,0.0223 h -0.29134 l -0.20323,0.27137 -0.20559,0.30779 -0.11045,0.0987 0.007,0.007 -0.16447,0.12798 -0.24905,0.18091 v 0.31602 0.36066 0.33953 0.11274 l 0.0223,0.11274 0.20323,0.51925 0.0236,0.067 0.0446,0.0459 0.36536,0.5968 0.19971,0.50984 0.20324,0.51926 0.0446,0.067 0.0223,0.0682 0.13503,0.20323 v 0.11274 0.70017 0.0682 0.0905 l 0.16918,0.7131 -0.16918,0.73189 v 0.067 0.0682 0.7225 l -0.22555,1.03852 v 0.0223 l -0.13748,0.70252 -0.31367,-0.97271 v -0.0236 l -0.0223,-0.0446 -0.63205,-1.37686 -0.0234,-0.0234 -0.0223,-0.0446 -0.83527,-1.37685 -0.83528,-1.40034 -0.0223,-0.0459 -0.0459,-0.0446 -1.03968,-1.17244 0.001,-0.001 -0.83528,-1.03969 -0.0459,-0.0446 -0.0446,-0.0446 -1.06083,-0.8811 h -0.0236 l -0.16447,-0.12798 0.007,-0.007 -0.20324,-0.18093 -0.18092,-0.15863 h -0.24788 -0.4288 -0.20325 -0.6332 -0.22555 l -0.18092,0.13634 -0.34186,0.27019 -0.35714,0.15863 -0.0682,0.0223 -0.0682,0.0682 -0.65436,0.51927 -0.61089,0.50162 -0.78946,0.49107 -0.0446,0.0234 -0.0223,0.0223 -1.42267,1.16423 v -1.0068 -0.76714 l -0.76832,0.13503 -3.17426,0.55568 0.33011,-3.6489 z m 64.49946,3.56665 h 0.0341 l 0.56273,0.13634 0.001,-0.007 0.29486,0.12454 0.003,0.002 0.34303,0.41587 0.17034,0.43468 0.0115,-0.005 0.16917,0.58387 v 0.75305 0.94805 l -0.20088,1.55894 h -0.002 l -0.19032,1.14307 -0.5545,1.06907 -0.56391,0.92455 -0.30308,0.22909 -0.35245,0.15616 -0.15862,0.0682 -0.11275,0.15748 -0.12568,0.18798 -0.18914,0.0845 -0.001,-0.001 -0.4288,0.15748 -0.0223,0.0223 -0.32425,0.13633 h -0.06 -0.40648 -0.30896 l -0.28195,-0.11864 -0.0952,-0.0741 0.008,-0.01 -0.28312,-0.23966 -0.14568,-0.48284 -0.19618,-0.67432 0.0147,-0.003 -0.17975,-0.75891 v -0.82118 -0.84115 l 0.15748,-0.5592 0.20324,-0.67667 0.18914,-0.65318 0.21733,-0.49929 0.0223,-0.0223 v -0.0446 l 0.14454,-0.49812 0.28429,-0.22438 0.13634,-0.0905 0.067,-0.18093 0.13389,-0.34302 0.29603,-0.22205 0.0223,-0.0223 0.0223,-0.0223 0.38298,-0.3407 0.001,0.002 0.42882,-0.33951 0.40648,-0.33834 0.0282,-0.0223 h 0.19737 0.11274 l 0.11274,-0.0459 z m 53.32017,4.94586 -0.63203,0.15747 10e-4,0.005 -0.81414,0.17621 0.001,0.007 -1.03968,0.15158 h -0.0223 -0.0459 l -2.09935,0.51926 -0.65554,0.18093 0.20324,0.63202 0.4288,1.40037 0.15863,0.54157 0.5639,-0.0905 1.03969,-0.17975 h 0.0223 l 0.73189,-0.15862 h 0.62264 0.34304 l 0.16446,0.0693 0.0564,0.0505 0.0682,0.11389 v 0.15043 0.13503 l 0.0459,0.11274 0.38298,0.92807 v 0.92339 1.40035 1.2817 l -0.40648,1.47319 -0.0223,0.0446 v 0.0459 l -0.19032,1.29227 -0.41236,1.17126 -0.007,-0.002 -0.40647,1.03852 v 0.0223 l -0.18444,0.57211 -0.53806,0.55685 -0.0446,0.0223 -0.0223,0.0459 -0.34069,0.45346 -0.72132,0.44877 -0.0446,0.0236 -0.0223,0.0223 -0.52631,0.43232 -1.05496,0.51573 0.008,0.0147 -0.75186,0.30428 -0.001,-0.003 -1.015,0.34657 -0.001,-0.007 -0.63202,0.15748 h -0.4523 -0.63205 -0.2185 l -0.0293,-0.0223 -0.0459,-0.0682 -0.0893,-0.0223 -0.32778,-0.13864 -0.12454,-0.1093 -0.11274,-0.11389 -0.15862,-0.0446 -0.63205,-0.15862 -10e-4,0.007 -0.31837,-0.13388 0.003,-0.008 -0.40648,-0.18092 h -0.0223 l -0.0223,-0.0223 -0.4288,-0.15748 -0.005,0.01 -0.40177,-0.16916 -0.11274,-0.0446 h -0.13634 -0.26316 l -0.32307,-0.13634 -0.11389,-0.0446 h -0.13503 -0.40648 -0.13502 l -0.11275,0.0446 -0.42879,0.18093 -0.0905,0.0459 -0.0905,0.067 -0.0882,0.0775 -0.34068,0.12569 -0.11274,0.0459 -0.0905,0.0905 -0.20323,0.17973 -0.20325,0.18093 v 0.29369 0.14092 l -0.13634,0.24319 -0.067,0.15747 v 0.15863 0.33834 0.29369 l 0.20323,0.18091 0.13634,0.11979 0.15748,0.26316 0.20323,0.3395 0.0446,0.0905 0.0905,0.067 0.42879,0.36184 0.11275,0.0905 0.13503,0.0446 0.6332,0.15862 0.003,-0.0147 0.60619,0.1727 0.0223,0.0223 h 0.0223 l 0.83527,0.18093 h 0.0223 l 0.83528,0.15863 0.0459,0.0223 h 0.0682 1.06082 1.03853 0.0446 l 0.0459,-0.0223 1.06084,-0.15863 h 0.0459 l 0.0446,-0.0223 1.26407,-0.36184 h 0.0234 l 1.03852,-0.33833 h 0.0223 l 0.0223,-0.0223 1.26525,-0.51925 0.83528,-0.33834 0.0223,-0.001 0.0446,-0.0223 0.63321,-0.36066 -0.007,-0.01 0.61441,-0.33012 h 0.0236 l 0.0223,-0.0223 0.746,-0.45112 0.85759,-0.33834 0.11274,-0.0459 0.067,-0.0682 0.82116,-0.68725 0.78241,-0.48637 0.0446,-0.0223 0.0236,-0.0223 0.83528,-0.70018 1.82914,-1.1748 0.067,-0.0223 0.0459,-0.0446 1.4673,-1.37803 1.46732,-1.39918 1.26524,-1.1971 0.0223,-0.0459 0.0446,-0.0446 1.062,-1.40035 -0.002,-0.002 0.81532,-1.01384 0.0446,-0.0446 0.0223,-0.0682 0.60854,-1.15247 10e-4,0.001 0.63204,-1.06084 0.11275,-0.15863 v -0.17975 -0.21145 l 0.0904,-0.15043 0.20325,-0.33835 -0.20325,-0.3395 -0.0904,-0.15043 v -0.2103 -0.20324 l -0.11275,-0.15863 -0.22556,-0.33834 -0.0446,-0.0682 -0.0682,-0.0446 -0.20324,-0.18092 -0.0223,-0.0223 h -0.0223 l -0.20325,-0.15863 -0.0459,-0.067 -0.0905,-0.0223 -0.41,-0.17268 0.003,-0.008 -0.40647,-0.18092 -0.13503,-0.0446 h -0.13503 -0.22555 -0.13634 l -0.13503,0.0446 -0.30309,0.13503 h -0.0588 -0.15748 l -0.13634,0.0682 -0.63203,0.33834 -0.22556,0.11274 -0.0905,0.22675 -0.15043,0.38414 -0.0752,0.067 -0.20324,0.18091 v 0.2937 0.33833 0.36067 0.37828 l -0.18092,0.43468 -0.0446,0.11274 v 0.13634 0.3313 l -0.11274,0.18795 -0.0905,0.15748 v 0.18091 0.13979 l -0.33834,0.5827 0.007,0.003 -0.41235,0.67432 -0.0236,0.0223 v 0.0223 l -0.38887,0.77771 -0.58152,0.64496 -0.0223,0.0223 -0.0236,0.0234 -0.60853,0.85759 -0.63675,0.63673 0.27491,-0.93042 0.0223,-0.0446 v -0.0459 l 0.22555,-1.55778 0.0236,-0.0446 v -0.0459 -1.55778 -1.58009 -0.0459 l -0.0236,-0.0682 -0.22555,-1.39916 -0.20324,-1.19712 v -0.0446 l -0.0223,-0.0459 -0.38414,-1.09256 v -0.1034 -0.31721 l -0.27021,-0.17974 -0.16564,-0.1293 0.007,-0.007 -0.20323,-0.17975 -0.0905,-0.0905 -0.11274,-0.0459 -0.4288,-0.15748 -0.11274,-0.0223 h -0.11274 -0.40648 -0.63203 -0.63321 -0.0893 z m -134.21618,1.46732 h 0.21146 l 0.289,0.11274 0.11274,0.0446 h 0.11274 0.30193 l 0.38062,0.20441 0.06,0.0529 0.20559,0.3078 0.0682,0.0682 0.067,0.067 0.14798,0.11864 0.08,0.13274 0.20207,0.51691 0.0223,0.067 0.0446,0.0459 0.16446,0.26316 0.19736,0.50398 0.20325,0.51925 0.007,-0.002 0.2185,0.65789 0.007,-0.002 0.19739,0.67904 0.18091,0.6426 v 0.57682 0.51926 0.53218 l -0.18091,0.4617 -0.0223,0.11274 v 0.11274 0.35128 l -0.14912,0.38061 -0.17152,0.25494 -0.31132,0.27725 -0.0682,0.0459 -0.0459,0.0682 -0.20559,0.3078 -0.11045,0.0987 0.007,0.007 -0.0682,0.0529 -0.41118,0.16566 -0.0905,0.0223 -0.0905,0.0905 -0.0248,0.0223 h -0.38181 -0.2608 l -0.25259,-0.11274 -0.14093,-0.11274 -0.60971,-0.51927 -0.56154,-0.44407 -0.29841,-0.59914 -0.20205,-0.85407 -0.0223,-0.0905 -0.067,-0.0893 -0.38768,-0.63087 -0.13274,-0.45818 v -0.64966 -0.0905 l -0.0446,-0.0905 -0.15863,-0.56389 v -0.56625 l 0.15863,-0.40532 0.0446,-0.11274 v -0.11274 -0.56625 l 0.15863,-0.4053 0.19854,-0.5075 0.16322,-0.25964 0.20323,-0.33952 0.20206,-0.33833 0.10095,-0.15977 0.23849,-0.0882 0.0905,-0.0459 0.0905,-0.067 0.12339,-0.0986 z m 160.27301,0.0905 -0.63203,0.15748 h -0.67786 -0.0905 l -0.0905,0.0223 -0.63205,0.18093 h -0.067 l -0.0459,0.0459 -0.59914,0.32071 -0.82353,0.33365 h -0.0223 l -0.0446,0.0223 -0.6332,0.36184 -0.0223,0.0223 -0.74482,0.45112 h -0.001 l -0.40529,0.15863 -0.11275,0.0446 -0.0682,0.0682 -0.56507,0.46404 -0.63086,0.3489 -0.0459,0.0223 -0.0446,0.0459 -0.78711,0.63791 -0.003,-0.007 -1.06084,0.70017 -0.0236,0.0223 -0.0223,0.0223 -1.03851,0.8576 0.005,0.007 -1.22414,0.85289 -1.4673,1.03853 h -0.0223 l -8.39975,6.23225 -0.7683,0.58622 0.81295,0.49694 2.93579,1.73868 0.38416,0.20325 0.33834,-0.24788 5.07979,-3.91558 v 0.0998 0.67669 0.54157 l -0.22555,0.88109 v 0.0223 0.0223 l -0.20325,1.03969 -0.195,0.99505 -0.008,-0.002 -0.22556,0.85877 0.0147,0.003 -0.19502,0.67318 -0.20323,0.70016 -0.20323,0.67785 -0.0223,0.0904 v 0.0893 0.37594 l -0.18092,0.4147 -0.0446,0.11274 v 0.13634 0.36066 1.03852 0.0682 0.0682 l 0.22557,1.03851 v 0.0223 l 0.20323,0.85759 0.20323,0.85878 0.0223,0.0893 0.0682,0.0905 0.42881,0.70017 0.0223,0.0459 0.0459,0.0446 0.63204,0.70017 0.0223,0.0446 0.0459,0.0236 0.83528,0.67668 0.0223,0.0223 0.0446,0.0234 0.83644,0.51925 0.83529,0.51927 0.0904,0.067 0.11275,0.0234 0.85759,0.17973 0.83528,0.18093 0.0682,0.0223 h 0.0682 1.06085 0.83527 0.18091 l 0.1352,-0.0904 0.63202,-0.36066 -0.005,-0.01 0.61441,-0.32893 0.63203,-0.33952 0.15862,-0.067 0.0905,-0.15863 0.22557,-0.36066 0.11274,-0.15863 v -0.18091 -0.18797 l 0.0905,-0.15043 0.29371,-0.47462 -0.38416,-0.31955 v -0.0634 -0.31602 l -0.24789,-0.18092 -0.14797,-0.11749 -0.14568,-0.24435 -0.0459,-0.067 -0.067,-0.0682 -0.20323,-0.18093 -0.0234,-0.0223 -0.22557,-0.18092 -0.17973,-0.13502 h -0.22675 -0.20323 -0.42879 -0.20325 -0.0905 l -0.0905,0.0223 -0.63205,0.18093 -0.13503,0.0223 -0.11274,0.11274 -0.20325,0.18091 0.007,0.007 -0.16566,0.12798 -0.0904,0.0682 -0.067,0.0904 -0.21616,0.34539 -0.01,-0.007 -0.22673,0.33834 -0.0905,0.15862 v 0.20325 0.0411 l -0.0341,0.027 h -0.168 -0.0552 l -0.30663,-0.13634 -0.13503,-0.0446 h -0.13634 -0.06 l -0.17152,-0.0728 -0.33246,-0.40177 -0.0459,-0.0446 -0.0446,-0.0459 -0.32894,-0.27373 -0.30309,-0.49341 -0.15863,-0.4053 v -0.22673 -0.13634 l -0.067,-0.11274 -0.11864,-0.27137 0.11864,-0.2702 0.067,-0.11274 v -0.13503 -0.52043 -0.58739 l 0.15863,-0.4053 0.0446,-0.11275 v -0.11274 -0.83175 l 0.15273,-0.5263 0.007,0.002 0.22557,-0.67668 v -0.0223 l 0.1915,-0.66023 0.0115,0.005 0.20324,-0.51926 0.0446,-0.11274 v -0.11274 -0.42529 l 0.15862,-0.36535 0.0682,-0.11274 v -0.13503 -0.51925 -0.33952 -0.31485 l 0.15748,-0.54275 0.0682,-0.18091 -0.0682,-0.17975 -0.15748,-0.5592 v -0.5028 -0.32541 l 0.13503,0.0552 0.0682,0.0223 0.0446,0.0223 0.81414,0.17621 -10e-4,0.005 0.65436,0.15748 h 0.0236 l 0.83529,0.18091 0.067,0.0223 h 0.0682 0.63203 0.85877 0.63205 0.60971 0.0905 l 0.0893,-0.0446 0.63321,-0.18091 h 0.0223 0.0223 l 0.4288,-0.15748 0.0223,-0.0236 0.42997,-0.17975 h 0.0223 l 0.0223,-0.0234 0.63202,-0.33834 0.18092,-0.0905 0.0904,-0.15747 0.15158,-0.27021 0.29957,-0.24906 0.4288,-0.33951 0.24905,-0.17975 v -0.31718 -0.36419 l 0.11274,-0.19972 0.0905,-0.15863 v -0.15747 -0.51927 -0.11275 l -0.0459,-0.11274 -0.20325,-0.51927 -0.0223,-0.0682 -0.0446,-0.0459 -0.20324,-0.33834 v -0.0223 l -0.22555,-0.33834 -0.0459,-0.0682 -0.0682,-0.0459 -0.40647,-0.36066 -0.11275,-0.11275 -0.15747,-0.0459 -0.63203,-0.15748 -0.001,0.005 -0.74481,-0.32073 -0.067,-0.0223 -0.0682,-0.0234 -0.85761,-0.15747 h -0.0459 -0.067 -0.7225 l -1.03969,-0.18093 -0.11274,-0.0223 -0.0905,0.0223 -0.36771,0.0529 1.65528,-1.15953 h 0.0223 l 0.0223,-0.0223 0.6332,-0.51926 0.60503,-0.49693 0.54627,-0.2937 0.067,-0.0223 0.0459,-0.0446 0.40648,-0.33951 0.33127,-0.27843 0.34657,-0.12798 0.11274,-0.0446 0.0893,-0.0905 0.20323,-0.18093 0.0868,-0.0764 0.34305,-0.12683 0.0223,-0.0223 h 0.0223 l 0.40648,-0.18093 -0.003,-0.008 0.25023,-0.10455 h 0.1152 0.54275 l 0.168,0.0705 0.12454,0.11045 0.0223,0.0223 0.4288,0.33952 0.63202,0.51925 0.40648,0.33834 0.4288,0.36066 0.0682,0.0682 0.11274,0.0459 0.40648,0.15747 0.005,-0.01 0.30074,0.12684 0.1234,0.1093 0.18093,0.18093 h 0.24905 0.42879 0.4288 0.20325 0.13503 l 0.11274,-0.0682 0.42879,-0.17975 0.0905,-0.0459 0.0905,-0.0682 0.20323,-0.17975 -0.007,-0.007 0.16564,-0.12929 0.11274,-0.067 0.0682,-0.11275 0.14568,-0.25961 0.0798,-0.0564 0.2937,-0.18091 v -0.33834 -0.36184 -0.20323 l -0.11389,-0.15863 -0.11274,-0.16917 v -0.14683 -0.29252 l -0.22555,-0.18092 -0.20325,-0.18092 v -0.0223 h -0.0223 l -0.40648,-0.33951 -0.4288,-0.36066 -0.0682,-0.0682 -0.11274,-0.0446 -0.4288,-0.15862 h -0.0223 -0.0236 l -0.56978,-0.16207 -0.5815,-0.31132 -0.0446,-0.0234 -0.0682,-0.0223 -0.60973,-0.18093 -0.0223,-0.0223 h -0.0446 l -0.85877,-0.15748 h -0.0446 -0.0682 -0.83527 -0.63205 -0.83527 -0.83646 -0.0893 z m -6.36736,9.76837 v 0.008 h 0.85761 0.60971 0.58621 l 0.54275,0.13503 10e-4,-0.007 0.15747,0.0657 v 0.0305 0.15158 l -0.11274,0.18796 -0.0234,0.0223 -0.10111,0.18093 -0.21498,0.0893 -0.4288,0.18092 h -0.0223 l -0.40648,0.18092 v 0.001 l -0.31953,0.1116 h -0.33482 l -0.63322,-0.15863 -0.003,0.0147 -0.60619,-0.1727 -0.0223,-0.0223 h -0.0223 l -0.82116,-0.17739 -0.75892,-0.31954 -0.30779,-0.12454 0.37475,-0.0564 h 0.0223 l 1.062,-0.18091 v -0.003 z" />
    <path
       style="fill:none;stroke:#000000;stroke-width:4.489;stroke-linecap:round;stroke-linejoin:miter;stroke-miterlimit:4;stroke-dasharray:none;stroke-opacity:1"
       d="m 224.91547,184.12046 c 16.75652,-24.26893 -26.68998,-29.99121 -43.64621,-15.69024 -13.56298,11.43908 -19.059,12.55971 -26.94808,5.40537"
       id="path39350-2"
       sodipodi:nodetypes="csc" />
    <rect
       style="fill:#000000;stroke:none;stroke-width:0.758407;stroke-linecap:butt;stroke-miterlimit:4;stroke-dasharray:none"
       id="rect43634-1"
       height="11.752"
       x="281.36349"
       y="43.363972"
       ry="2.2340388"
       transform="matrix(0.86990373,0.49322155,-0.5068092,0.86205826,0,0)"
       width="11.750551" />
    <ellipse
       style="fill:#ffffff;stroke:none;stroke-width:0.634558;stroke-linecap:butt;stroke-miterlimit:4;stroke-dasharray:none"
       id="path43724-1"
       cx="286.84274"
       cy="46.995247"
       transform="rotate(30.000003)"
       rx="3.4989181"
       ry="3.4989173" />
    <ellipse
       style="fill:none;fill-opacity:1;stroke:#000000;stroke-width:0.773826;stroke-linecap:round;stroke-miterlimit:4;stroke-dasharray:none"
       id="path63853-1"
       cx="192.82654"
       cy="217.83344"
       rx="119.59087"
       ry="65.20208" />
    <path
       style="opacity:1;fill:#999999;fill-opacity:1;stroke:none;stroke-width:1.00157;stroke-linecap:butt;stroke-linejoin:miter;stroke-miterlimit:4;stroke-dasharray:none;stroke-opacity:1"
       d="m 276.71596,229.78324 -46.7064,10.76859 27.32068,38.02418 -32.19074,-33.78403 -16.15768,32.92692 10.303,-35.3358 -85.31617,10.09894 84.33157,-16.74798 -17.61767,-27.03141 22.48775,22.79126 19.76653,-42.19445 -13.91187,44.60333 z"
       id="path56244-1"
       sodipodi:nodetypes="ccccccccccccc" />
    <path
       style="fill:none;stroke:#000000;stroke-width:4.489;stroke-linecap:round;stroke-linejoin:miter;stroke-dasharray:none;stroke-opacity:1"
       d="m 163.56393,174.39932 v 7.07609"
       id="path1"
       sodipodi:nodetypes="cc" />
    <g
       aria-label="®"
       id="text6182"
       style="font-size:40px;line-height:1.25"
       transform="matrix(0.35105563,0.32965684,-0.32965684,0.35105563,199.6335,20.244108)">
      <path
         d="m 354.81506,71.938194 q -2.36328,0 -4.39453,0.859375 -2.03125,0.839844 -3.73047,2.539063 -1.69922,1.699219 -2.55859,3.730469 -0.83984,2.011718 -0.83984,4.394531 0,2.363281 0.83984,4.394531 0.85937,2.011719 2.55859,3.710938 1.67969,1.679687 3.71094,2.519531 2.05078,0.839844 4.41406,0.839844 2.40235,0 4.41407,-0.820313 2.01171,-0.839844 3.71093,-2.539062 1.69922,-1.699219 2.53907,-3.710938 0.85937,-2.03125 0.85937,-4.394531 0,-2.382813 -0.85937,-4.394531 -0.83985,-2.03125 -2.53907,-3.730469 -1.71875,-1.71875 -3.75,-2.558594 -2.01172,-0.839844 -4.375,-0.839844 z m -1.11328,5.761719 h -0.68359 v 4.042969 h 0.68359 q 1.52344,0 2.28516,-0.507813 0.78125,-0.527343 0.78125,-1.542968 0,-1.015625 -0.76172,-1.503907 -0.74219,-0.488281 -2.30469,-0.488281 z m 0.72266,-2.695312 q 3.4375,0 5.13672,1.171875 1.69922,1.152343 1.69922,3.515625 0,1.679687 -1.03516,2.773437 -1.01563,1.09375 -2.89063,1.425781 0.80079,0.429688 1.48438,1.210938 0.70312,0.78125 1.26953,1.914062 l 2.16797,4.316407 h -4.47266 l -2.08984,-4.160157 q -0.74219,-1.523437 -1.30859,-2.148437 -0.56641,-0.644531 -1.13282,-0.644531 h -0.23437 v 6.953125 h -4.16016 V 75.004601 Z m 0.39062,-6.074219 q 2.96875,0 5.52735,1.074219 2.57812,1.074218 4.70703,3.203125 2.1289,2.128906 3.18359,4.6875 1.05469,2.558593 1.05469,5.566406 0,2.96875 -1.05469,5.527344 -1.05469,2.539062 -3.18359,4.667968 -2.12891,2.128907 -4.70703,3.203125 -2.5586,1.074219 -5.52735,1.074219 -2.96875,0 -5.54687,-1.074219 -2.5586,-1.074218 -4.6875,-3.203125 -2.12891,-2.128906 -3.1836,-4.667968 -1.05468,-2.558594 -1.05468,-5.527344 0,-3.007813 1.05468,-5.566406 1.05469,-2.558594 3.1836,-4.6875 2.1289,-2.128907 4.6875,-3.203125 2.57812,-1.074219 5.54687,-1.074219 z"
         style="font-weight:bold;-inkscape-font-specification:'sans-serif Bold'"
         id="path9120" />
    </g>
  </g>
</svg>
